<?xml version="1.0" encoding="UTF-8"?>
<!DOCTYPE svg PUBLIC "-//W3C//DTD SVG 1.1//EN" "http://www.w3.org/Graphics/SVG/1.1/DTD/svg11.dtd">
<!-- Creator: CorelDRAW X7 -->
<svg xmlns="http://www.w3.org/2000/svg" xml:space="preserve" width="113.496mm" height="95.7057mm" version="1.1" style="shape-rendering:geometricPrecision; text-rendering:geometricPrecision; image-rendering:optimizeQuality; fill-rule:evenodd; clip-rule:evenodd"
viewBox="0 0 11350 9571"
 xmlns:xlink="http://www.w3.org/1999/xlink">
 <defs>
  <style type="text/css">
   <![CDATA[
    .fil2 {fill:#FEFEFE}
    .fil0 {fill:#E62129}
    .fil1 {fill:black}
   ]]>
  </style>
 </defs>
 <g id="Layer_x0020_1">
  <metadata id="CorelCorpID_0Corel-Layer"/>
  <g id="_307418024">
   <path class="fil0" d="M7101 1434l-1 0c487,-344 1238,-810 1653,-1216 2,-11 4,-25 -31,-17 -121,27 -433,159 -512,209 21,20 106,47 151,60 -50,6 -96,-1 -140,-5 -129,-13 -220,38 -344,99 -41,20 -79,39 -117,59 -1,26 231,92 280,88 -78,15 -136,9 -191,3 -85,-11 -151,-31 -233,-3 -113,39 -249,120 -353,173 -1,32 281,131 341,127 -240,21 -249,-21 -421,-41 -30,-3 -64,0 -113,19 -39,15 -205,96 -272,131l7 -6 0 1 -15 6c6,37 35,99 38,145 3,45 225,145 273,168z"/>
   <g>
    <path class="fil1" d="M1118 8018l0 -1025 373 0 0 1025c0,311 -155,466 -466,466l-559 0c-311,0 -466,-155 -466,-466l0 -1025 373 0 0 1025c0,62 31,93 93,93l559 0c62,0 93,-31 93,-93zm1084 -339l0 805 -373 0 0 -1581 1119 895 0 -805 373 0 0 1581 -1119 -895zm1830 805l-373 0 0 -1491 373 0 0 1491zm1457 -466l0 -93 372 0 0 93c0,311 -155,466 -466,466l-559 0c-311,0 -466,-155 -466,-466l0 -559c0,-311 155,-466 466,-466l559 0c311,0 466,155 466,466l0 93 -372 0 0 -93c0,-62 -32,-93 -94,-93l-559 0c-62,0 -93,31 -93,93l0 559c0,62 31,93 93,93l559 0c62,0 94,-31 94,-93zm1829 -559c0,-62 -31,-93 -93,-93l-559 0c-62,0 -94,31 -94,93l0 559c0,62 32,93 94,93l559 0c62,0 93,-31 93,-93l0 -559zm-93 -466c310,0 466,155 466,466l0 559c0,311 -156,466 -466,466l-559 0c-311,0 -466,-155 -466,-466l0 -559c0,-311 155,-466 466,-466l559 0zm804 0l1025 0c311,0 466,155 466,466 0,274 -121,427 -362,460l452 565 -478 0 -448 -559 -282 0 0 559 -373 0 0 -1491zm373 373l0 186 652 0c62,0 93,-31 93,-93 0,-62 -31,-93 -93,-93l-652 0zm1829 313l0 805 -373 0 0 -1581 1119 895 0 -805 373 0 0 1581 -1119 -895z"/>
    <path class="fil1" d="M2004 9551l0 -638 598 0 0 93 -498 0 0 159 327 0 0 92 -327 0 0 202 526 0 0 92 -626 0zm1409 0l0 -638 52 0 405 448 0 -448 98 0 0 638 -52 0 -405 -447 0 447 -98 0zm1846 -248l0 -92 262 0 0 193c-36,54 -84,96 -144,124 -59,28 -128,43 -206,43 -117,0 -213,-32 -288,-95 -75,-64 -112,-144 -112,-242 0,-97 37,-178 112,-242 76,-64 171,-96 288,-96 74,0 139,13 196,38 57,26 105,63 142,112l-76 55c-27,-35 -64,-63 -110,-83 -46,-20 -97,-30 -152,-30 -87,0 -158,23 -214,69 -56,47 -84,105 -84,176 0,70 28,129 84,175 55,46 126,69 214,69 55,0 106,-10 152,-29 47,-20 79,-46 98,-76l0 -69 -162 0zm1086 248l0 -639 101 0 0 639 -101 0zm962 0l0 -638 52 0 405 448 0 -448 98 0 0 638 -52 0 -405 -447 0 447 -98 0zm1413 0l0 -638 598 0 0 93 -499 0 0 159 327 0 0 92 -327 0 0 202 526 0 0 92 -625 0z"/>
    <polygon class="fil1" points="0,9165 1300,9165 1300,9257 0,9257 "/>
    <polygon class="fil1" points="10050,9165 11350,9165 11350,9257 10050,9257 "/>
   </g>
   <path class="fil0" d="M6093 1928c-68,808 676,845 742,827 143,29 409,219 409,219 19,168 46,178 119,216 169,90 504,48 596,-158 108,-240 -244,-791 -381,-961 -171,-211 -25,-195 -113,-398 -50,-114 -146,-235 -238,-336 -44,-25 -232,-136 -241,-182 -2,-14 -8,-32 -15,-50 82,-41 348,-534 371,-616 -193,-13 -642,82 -703,233 18,76 95,130 112,206 -120,-51 -172,-117 -292,-167l-130 -761c-315,130 -399,508 -365,798 -331,-279 -667,-228 -1127,-51 208,6 316,80 361,163 -266,94 -570,161 -1121,197 82,136 254,233 389,258 -92,61 -845,-136 -1223,557 199,-199 740,-294 870,-68 -214,106 -242,312 -608,374 86,95 355,102 539,95 -464,216 -780,610 -1364,699 501,155 749,74 1051,18 -278,249 -557,583 -506,1176 59,-275 360,-529 591,-410 -122,205 -326,620 -669,844 309,48 610,-116 760,-221 -167,266 -251,557 -394,833 79,67 162,130 248,189 12,-10 24,-19 35,-29l247 134c3,25 6,49 10,73 56,30 113,58 171,85 15,-40 35,-81 58,-118 24,59 49,118 75,176 368,150 769,232 1190,232 1063,0 2002,-524 2576,-1328 -86,-12 -1934,-233 -1529,-1704 -337,-164 -688,-486 -501,-1044zm-790 -679c-807,838 -83,1836 699,2200 -576,-416 -1302,-1282 -699,-2200zm-737 870c-408,546 -247,1080 64,1388 102,102 229,188 370,267 657,365 1590,567 2009,1199 -159,-412 -359,-636 -616,-799 -603,-381 -1604,-489 -1884,-1204 -94,-241 -81,-522 57,-851z"/>
   <path class="fil0" d="M5319 6134c1651,121 3087,-1120 3207,-2771 53,-727 -158,-1412 -552,-1962l-9 7c250,477 375,1027 333,1603 -119,1642 -1547,2875 -3189,2756 -974,-71 -1804,-603 -2293,-1366 442,957 1377,1651 2503,1733z"/>
   <path class="fil2" d="M6976 1558c117,44 208,189 330,310 -118,-13 -192,-47 -279,-53 74,-103 -11,-187 -51,-257z"/>
  </g>
 </g>
</svg>
